<?xml version="1.0" encoding="utf-8"?>
<!-- Generator: Adobe Illustrator 26.5.3, SVG Export Plug-In . SVG Version: 6.00 Build 0)  -->
<svg version="1.1" id="Layer_1" xmlns="http://www.w3.org/2000/svg" xmlns:xlink="http://www.w3.org/1999/xlink" x="0px" y="0px"
	 viewBox="0 0 300 300" style="enable-background:new 0 0 300 300;" xml:space="preserve">
<style type="text/css">
	.st0{fill:#C3E0D0;}
	.st1{fill:#71BE4A;}
	.st2{fill:#A8D8EB;}
	.st3{fill:#F0B4C7;}
	.st4{fill:#C4E1D1;}
	.st5{fill:#E53383;}
	.st6{fill:#A7D6EC;}
	.st7{fill:#B5B7D9;}
	.st8{fill:#FFFFFF;}
	.st9{fill:#F6F4B7;}
	.st10{fill:#F0B4C8;}
</style>
<g>
	<path class="st0" d="M178.07,78.56c-0.09-0.17,0.09-0.35,0.26-0.52c0.7-0.78,1.39-1.65,2.09-2.43c1.65,0.61,3.39,0.43,5.13,0.35
		c-0.43-0.09-1.22-0.87-1.56-1.13c-0.43-0.26-1.3-0.7-1.56-1.13c-0.43-0.7,1.04-2.26,1.48-2.87c0.17-0.26,0.35-0.52,0.61-0.52
		c0.43,0.61,1.13,1.13,1.74,1.65c2.52,1.91,5.04,3.91,7.47,5.82c0.61,0.43,1.3,0.96,2,0.87c0,0.61-0.61,0.96-1.04,1.22
		c-0.52,0.26-0.87,0.7-1.22,1.13c-0.09,0.17-0.17,0.35-0.35,0.43c-0.26,0.09-0.52,0-0.78-0.17c-0.17-0.17-0.35-0.43-0.52-0.61
		c-0.7-0.7-1.65-0.87-2.61-0.96c-1.22-0.09-2.43-0.09-3.65-0.09c2.52,2,5.13,4,7.65,6c-0.96,0.78-1.56,1.83-1.83,2.95
		c-0.52,0.09-0.96-0.35-1.39-0.7c-0.78-0.87-1.74-1.56-2.69-2.26c-2.95-2.17-5.91-4.43-8.95-6.69
		C178.24,78.82,178.07,78.74,178.07,78.56z"/>
	<polygon class="st1" points="163.9,160.43 241.25,41.89 270.28,24.25 164.86,161.65 	"/>
	<path class="st2" d="M168.95,90.73c1.3-1.83,2.61-3.65,3.91-5.48c0.7-1.04,0.96-1.65,1.74-0.52c0.52,0.78,1.13,1.48,2.09,1.83
		c-0.96,1.22-1.83,2.43-2.69,3.65c0.26,0.43,0.61,0.78,0.96,1.04c0.61-0.43,1.04-1.04,1.3-1.83c0-0.09,0-0.17,0.09-0.17
		c0.17-0.26,0.52,0,0.78,0.17c0.78,0.7,1.83,1.22,2.87,1.56c0.17,0.09,0,0.35-0.17,0.43c-0.52,0.35-0.96,0.7-1.39,1.13
		c-0.17,0.17-0.35,0.26-0.35,0.52c-0.09,0.52,0.43,0.87,0.96,1.04c1.13-0.87,2-2.09,2.52-3.39c0.52-0.09,1.13,0.35,1.56,0.7
		c0.61,0.52,1.39,0.87,2.17,1.13c0,0.09,0.09,0.17,0.09,0.35c-0.96,0.35-1.56,1.13-2.17,1.83c-1.04,1.39-2.09,2.78-3.13,4.08
		c-0.09,0.17-0.17,0.26-0.35,0.35c-0.17,0-0.35-0.09-0.43-0.26c-1.74-1.3-3.39-2.69-5.13-4c-1.56-1.22-3.13-2.52-4.87-3.39
		c-0.26-0.17-0.52-0.26-0.43-0.52C168.86,90.9,168.86,90.82,168.95,90.73z"/>
	<path d="M178.33,78.04c-0.17,0.17-0.35,0.35-0.26,0.52c0,0.17,0.17,0.26,0.26,0.35c3.04,2.26,6,4.52,8.95,6.69
		c0.96,0.7,1.91,1.39,2.69,2.26c0.43,0.35,0.87,0.78,1.39,0.7c0.26-1.13,0.87-2.17,1.83-2.95c-2.52-2-5.13-4-7.65-6
		c1.22,0,2.43,0,3.65,0.09c0.96,0.09,1.91,0.26,2.61,0.96c0.17,0.17,0.35,0.43,0.52,0.61c0.26,0.17,0.52,0.26,0.78,0.17
		c0.17-0.09,0.26-0.26,0.35-0.43c0.35-0.43,0.7-0.87,1.22-1.13c0.43-0.26,1.04-0.61,1.04-1.22c-0.7,0.09-1.39-0.43-2-0.87
		c-2.43-1.91-4.95-3.91-7.47-5.82c-0.61-0.52-1.3-1.04-1.74-1.65c-0.26,0-0.43,0.26-0.61,0.52c-0.43,0.61-1.91,2.17-1.48,2.87
		c0.26,0.43,1.13,0.87,1.56,1.13c0.35,0.26,1.13,1.04,1.56,1.13c-1.74,0.09-3.48,0.26-5.13-0.35
		C179.72,76.39,179.03,77.26,178.33,78.04z M176.94,79.52c-0.52-0.61-0.61-1.65-0.09-2.26c0.26-0.35,0.61-0.61,0.96-0.87
		c0.52-0.43,0.78-1.13,1.3-1.56c0.43-0.52,1.13-0.96,1.83-0.7c-0.35-0.35-0.43-0.87-0.35-1.22c0.09-0.43,0.35-0.87,0.61-1.22
		c0.35-0.43,0.61-0.78,0.87-1.22c1.13-1.65,2.52-2,4-0.7c1.74,1.48,3.56,2.95,5.39,4.43c1.13,0.87,2.17,1.74,3.39,2.35
		c0.7,0.35,1.39,0.7,1.91,1.3c0.52,0.52,0.78,1.48,0.35,2.09c-0.26,0.35-0.7,0.52-1.04,0.7c-0.61,0.52-1.04,1.22-1.56,1.74
		c-0.43,0.52-1.22,0.96-1.91,0.7c0.96,0.7,1.91,1.39,1.91,2.52c0,0.78-0.61,1.39-0.96,2.09c-0.26,0.52-0.43,1.04-0.78,1.56
		c-0.35,0.52-0.78,0.96-1.39,1.04c-1.04,0.17-1.83-0.78-2.61-1.56c-0.7-0.78-1.56-1.39-2.43-2.09c-2.78-2.26-5.65-4.43-8.6-6.43
		C177.38,79.95,177.11,79.78,176.94,79.52z"/>
	<path class="st3" d="M196.67,54.92c-0.09-0.09-0.17-0.09-0.17-0.17c-0.09-0.17,0-0.35,0.09-0.52c1.22-1.65,2.35-3.3,3.56-4.95
		c0.43-0.52,0.87-1.48,1.74-1.13c0.7,0.26,1.04,1.13,1.74,1.56c0.35,0.17,0.7,0.35,0.61,0.7c-0.09,0.09-0.17,0.17-0.26,0.35
		c-0.7,0.52-1.22,1.3-1.83,2c-0.17,0.26-0.43,0.52-0.52,0.87c-0.09,0.26-0.09,0.7,0.17,0.87c0.35,0.35,0.87,0.26,1.13,0
		c0.35-0.26,0.52-0.7,0.7-1.04c0.09-0.26,0.17-0.43,0.26-0.61c0-0.09,0.09-0.09,0.09-0.17c0.17-0.09,0.26,0,0.43,0.09
		c0.96,0.52,1.83,1.04,2.78,1.65c0.26,0.09,0.43,0.26,0.61,0.52c-0.96,0.35-1.74,1.13-2.26,2.09c0.35,0.26,0.61,0.52,0.96,0.78
		c0.96-0.78,1.74-1.83,2.35-2.95c0.09-0.26,0.17-0.52,0.43-0.61s0.52,0.17,0.78,0.35c0.78,0.7,1.83,1.22,2.87,1.39
		c0.17,0.26-0.26,0.61-0.52,0.7c-0.61,0.26-1.04,0.87-1.48,1.39c-0.96,1.3-1.91,2.69-2.87,4c-0.26,0.35-0.61,0.7-1.04,0.61
		c-0.17-0.09-0.35-0.26-0.52-0.43c-1.65-1.65-4-2.87-5.91-4.35C199.36,56.84,198.15,55.62,196.67,54.92z"/>
	<path d="M163.9,97.16c-0.26,0.43-1.22,1.3-1.3,1.83c-0.09,0.52,0.7,0.87,1.13,1.3c1.13,0.78,2.26,1.65,3.39,2.52
		c1.13,0.87,2.26,1.74,3.39,2.61c0.61,0.43,1.13,0.87,1.74,1.3c0.17,0.09,1.65,0.96,1.65,1.22c0.17-1.04,0.7-2,1.39-2.78
		c0.09-0.09,0.26-0.26,0.26-0.43s-0.17-0.35-0.35-0.52c-3.56-2.43-7.04-4.95-10.43-7.73C164.43,96.47,164.17,96.81,163.9,97.16z
		 M160.86,99.86c-0.61-1.22,0.61-1.74,1.13-2.52c0.61-0.78,0.78-2,1.65-2.43c0.61-0.26,1.3-0.17,1.83,0.09
		c0.52,0.26,1.04,0.7,1.48,1.13c1.56,1.48,3.3,2.95,5.04,4.26c0.87,0.7,1.83,1.3,2.69,1.91c0.7,0.43,1.74,0.87,2.26,1.56
		c0.26,0.43,0.35,0.96,0.09,1.39c-0.17,0.35-0.43,0.61-0.7,0.87c-0.35,0.43-0.52,1.13-0.78,1.65c-0.09,0.26-0.17,0.52-0.26,0.7
		c-0.43,0.96-1.74,1.39-2.61,0.87c-0.43-0.26-0.7-0.52-0.96-0.87c-0.61-0.61-1.3-1.04-1.91-1.56c-2.61-1.91-5.13-3.74-7.65-5.65
		C161.65,100.9,161.12,100.46,160.86,99.86z"/>
	<path class="st4" d="M144.09,123.67c0-0.52,1.22-1.65,1.56-2.17c1.22-1.56,2.35-3.22,3.56-4.78c0.78,0.78,1.56,1.48,2.35,2.17
		c0.17,0.17,0.35,0.35,0.35,0.61c0,0.09-0.17,0.26-0.26,0.43c-0.96,0.96-1.83,2-2.43,3.22c0.35,0.26,0.61,0.52,0.96,0.87
		c0.61-0.61,1.13-1.39,1.39-2.17c0.17,0,0.26-0.09,0.35-0.09c1.13,0.61,2.35,1.22,3.48,1.83c0,0.17,0,0.35,0,0.52
		c-0.96,0.26-1.83,1.04-2.17,2.09c0.35,0.26,0.61,0.52,0.96,0.87c0.96-0.96,1.83-2,2.52-3.22c0.09-0.26,0.35-0.52,0.61-0.52
		c0.61,0.7,1.39,1.22,2.26,1.48c0.43,0.09,1.13,0.35,1.04,0.78c-0.96,0.35-1.56,1.13-2.17,1.91c-0.96,1.3-2,2.61-3.04,3.91
		c-0.09,0.17-0.17,0.26-0.26,0.26c-0.26,0.17-0.52,0-0.78-0.17c-2.95-2.26-5.91-4.52-8.86-6.78
		C145.05,124.36,144,124.19,144.09,123.67z"/>
	<path d="M196.58,54.23c-0.09,0.17-0.17,0.35-0.09,0.52c0,0.09,0.09,0.09,0.17,0.17c1.48,0.7,2.69,1.91,3.91,2.95
		c1.91,1.48,4.26,2.69,5.91,4.35c0.17,0.17,0.35,0.35,0.52,0.43c0.43,0.09,0.78-0.26,1.04-0.61c0.96-1.3,1.91-2.69,2.87-4
		c0.43-0.52,0.87-1.13,1.48-1.39c0.26-0.09,0.7-0.43,0.52-0.7c-1.04-0.17-2.09-0.7-2.87-1.39c-0.26-0.17-0.52-0.43-0.78-0.35
		s-0.35,0.35-0.43,0.61c-0.61,1.13-1.39,2.17-2.35,2.95c-0.35-0.26-0.61-0.52-0.96-0.78c0.52-0.96,1.3-1.74,2.26-2.09
		c-0.17-0.26-0.35-0.43-0.61-0.52c-0.96-0.61-1.83-1.13-2.78-1.65c-0.17-0.09-0.26-0.17-0.43-0.09c0,0.09-0.09,0.09-0.09,0.17
		c-0.09,0.17-0.17,0.35-0.26,0.61c-0.17,0.35-0.35,0.78-0.7,1.04c-0.26,0.26-0.78,0.35-1.13,0c-0.26-0.17-0.26-0.61-0.17-0.87
		c0.09-0.35,0.35-0.61,0.52-0.87c0.61-0.7,1.13-1.48,1.83-2c0.09-0.17,0.17-0.26,0.26-0.35c0.09-0.35-0.26-0.52-0.61-0.7
		c-0.7-0.43-1.04-1.3-1.74-1.56c-0.87-0.35-1.3,0.61-1.74,1.13C198.93,50.93,197.8,52.58,196.58,54.23z M187.37,57.71
		c-0.35,1.83,0.17,3.82,1.04,5.48c0.96,1.65,2.26,3.13,3.65,4.43c1.74,1.83,3.56,3.56,5.82,4.61c2.26,1.13,4.95,1.48,7.3,0.52
		c1.3-0.61,2.35-1.56,3.39-2.61c0.09-0.09,0.09-0.09,0.17-0.17c0-0.09-0.09-0.17-0.09-0.17c-0.78-1.3-1.65-2.69-2.43-4
		c-0.35-0.09-0.52,0.43-0.52,0.78c-0.35,1.74-2.35,2.87-4.08,2.78c-1.83-0.09-3.48-1.13-4.87-2.26c-1.74-1.3-3.22-2.95-4.61-4.69
		c-0.87-1.13-1.74-2.52-1.74-4.08c0-0.61,0.09-1.13,0.52-1.56c0.26-0.26,0.96-0.52,1.3-0.17c0.17,0.17,0.09,1.22,0.26,1.22
		c1.22,0.09,2.43-0.09,3.56-0.35c-0.17-1.22-0.87-2.35-1.83-3.22c-0.43-0.35-0.96-0.7-1.48-0.78c-0.7-0.17-1.3-0.17-1.91,0
		C189.02,53.97,187.72,55.79,187.37,57.71z M185.81,58.14c0.17-2.26,1.39-4.43,3.3-5.56c1.91-1.13,4.61-1.04,6.26,0.52
		c1.56-1.65,2.87-3.48,4-5.48c0.26-0.43,0.52-0.96,0.96-1.3c0.43-0.35,0.96-0.61,1.48-0.52c0.78,0.17,1.22,1.04,1.74,1.65
		c0.43,0.52,1.04,0.87,1.56,1.3c0.43,0.52,0.78,1.22,0.52,1.83c-0.09,0.17-0.17,0.35-0.17,0.61c0,0.09,0.17,0.26,0.26,0.35
		c0.87,0.7,1.83,1.48,2.87,1.22c0.26-0.09,0.43-0.17,0.7-0.17s0.43,0.09,0.7,0.17c0.87,0.43,1.74,0.87,2.61,1.3
		c0.43,0.26,0.96,0.52,1.39,0.96c0.7,0.7,0.7,1.65,0.09,2.35c-0.43,0.43-0.87,0.78-1.3,1.13c-0.61,0.52-1.13,1.13-1.56,1.83
		c-0.78,1.04-1.65,2.17-2.43,3.3c-0.17,0.17-0.35,0.43-0.61,0.52c-0.43,0.35-1.04,0.35-1.56,0.09c-0.09,0-0.09,0-0.17,0
		c-0.52-0.26-0.96-0.7-1.39-1.04c-0.7-0.7-1.48-1.22-2.26-1.83c-1.3-0.96-2.61-2-3.91-2.95c-0.96-0.7-0.87-0.35-1.74,0.17
		c-0.52,0.35-1.13,0.61-1.74,0.7c-0.96,0.17-2,0.17-2.95,0.09c1.22,3.22,3.91,5.74,6.87,7.65c0.61,0.43,1.3,0.87,2,0.96
		c0.78,0.17,1.56,0.09,2.17-0.52c0.7-0.78,0.61-2.17,1.48-2.87c0.52-0.26,1.04-0.35,1.65-0.17c0.17,0.09,0.35,0.17,0.52,0.26
		c0.7,0.43,1.13,1.04,1.56,1.65c0.43,0.7,0.96,1.48,1.22,2.26c0.17,0.87,0.17,1.83-0.26,2.52c-0.26,0.52-0.7,0.96-1.22,1.3
		c-1.3,1.13-2.78,2.17-4.43,2.52c-1.83,0.35-3.74-0.17-5.39-0.87c-2.43-1.13-4.61-2.69-6.6-4.52c-1.74-1.48-3.3-3.04-4.52-4.95
		C186.33,62.66,185.63,60.4,185.81,58.14z"/>
	<path class="st5" d="M195.19,60.83c0.35,0.17,1.83-0.43,2.17-0.52c0.87-0.35,0.96-0.35,1.74,0.17c1.48,1.13,2.95,2.17,4.43,3.3
		c-0.87,0.43-0.7,1.91-1.39,2.61c0,0.09-0.09,0.09-0.17,0.09c-0.09,0.09-0.17,0-0.35,0c-1.39-0.52-2.52-1.56-3.56-2.61
		C197.02,62.83,196.15,61.96,195.19,60.83z"/>
	<path class="st6" d="M188.41,63.18c-0.87-1.65-1.39-3.65-1.04-5.48c0.35-1.91,1.65-3.74,3.48-4.26c0.61-0.17,1.22-0.17,1.91,0
		c0.52,0.09,1.04,0.43,1.48,0.78c0.96,0.87,1.65,2,1.83,3.22c-1.13,0.26-2.35,0.43-3.56,0.35c-0.17,0-0.09-1.04-0.26-1.22
		c-0.35-0.35-1.04-0.09-1.3,0.17c-0.43,0.43-0.52,0.96-0.52,1.56c0,1.56,0.87,2.95,1.74,4.08c1.39,1.74,2.87,3.39,4.61,4.69
		c1.39,1.13,3.04,2.17,4.87,2.26c1.74,0.09,3.74-1.04,4.08-2.78c0-0.35,0.17-0.87,0.52-0.78c0.78,1.3,1.65,2.69,2.43,4
		c0,0,0.09,0.09,0.09,0.17c-0.09,0.09-0.09,0.09-0.17,0.17c-1.04,1.04-2.09,2-3.39,2.61c-2.35,0.96-5.04,0.61-7.3-0.52
		c-2.26-1.04-4.08-2.78-5.82-4.61C190.67,66.31,189.37,64.83,188.41,63.18z"/>
	<path class="st7" d="M162.6,98.99c0.09-0.52,1.04-1.39,1.3-1.83c0.26-0.35,0.52-0.7,0.87-0.7c3.39,2.78,6.87,5.3,10.43,7.73
		c0.17,0.17,0.35,0.35,0.35,0.52s-0.17,0.35-0.26,0.43c-0.7,0.78-1.22,1.74-1.39,2.78c0-0.26-1.48-1.13-1.65-1.22
		c-0.61-0.43-1.13-0.87-1.74-1.3c-1.13-0.87-2.26-1.74-3.39-2.61c-1.13-0.87-2.26-1.74-3.39-2.52
		C163.3,99.86,162.51,99.51,162.6,98.99z"/>
	<path d="M145.65,121.49c-0.35,0.52-1.56,1.65-1.56,2.17c-0.09,0.52,0.96,0.7,1.39,1.04c2.95,2.26,5.91,4.52,8.86,6.78
		c0.26,0.17,0.52,0.35,0.78,0.17c0.09,0,0.17-0.09,0.26-0.26c1.04-1.3,2.09-2.61,3.04-3.91c0.61-0.78,1.22-1.56,2.17-1.91
		c0.09-0.43-0.61-0.7-1.04-0.78c-0.87-0.26-1.65-0.78-2.26-1.48c-0.26,0-0.52,0.26-0.61,0.52c-0.7,1.22-1.56,2.26-2.52,3.22
		c-0.35-0.35-0.61-0.61-0.96-0.87c0.35-1.04,1.22-1.83,2.17-2.09c0-0.17,0-0.35,0-0.52c-1.13-0.61-2.35-1.22-3.48-1.83
		c-0.09,0-0.17,0.09-0.35,0.09c-0.26,0.78-0.78,1.56-1.39,2.17c-0.35-0.35-0.61-0.61-0.96-0.87c0.61-1.22,1.48-2.26,2.43-3.22
		c0.09-0.17,0.26-0.35,0.26-0.43c0-0.26-0.17-0.43-0.35-0.61c-0.78-0.7-1.56-1.39-2.35-2.17C148,118.28,146.87,119.93,145.65,121.49
		z M143.83,125.67c-0.52-0.43-1.13-0.96-1.3-1.65c-0.09-0.78,0.35-1.48,0.87-2.17c1.13-1.56,2.26-3.13,3.39-4.69
		c0.43-0.7,0.96-1.3,1.65-1.74c0.7-0.35,1.74-0.35,2.17,0.26c0.26,0.35,0.35,0.61,0.52,0.96c0.61,0.87,1.83,1.3,2.17,2.26
		c0.26,0.87-0.35,1.39,0.26,1.91c0.43,0.35,1.83,1.39,2.35,1.39c0.7,0,0.7-0.78,1.65-0.43c0.61,0.26,1.04,0.7,1.65,1.04
		c0.96,0.52,2.09,0.78,2.61,1.74c0.43,0.78,0.17,1.74-0.43,2.35c-0.26,0.26-0.52,0.43-0.78,0.7c-0.35,0.26-0.61,0.61-0.87,0.96
		c-0.96,1.22-1.83,2.35-2.78,3.56c-0.52,0.7-1.22,1.39-2.09,1.39c-0.61,0-1.22-0.35-1.65-0.78
		C150.09,130.36,146.96,128.01,143.83,125.67z"/>
	<polygon class="st5" points="192.24,50.14 198.49,46.15 195.19,51.01 	"/>
	<path class="st8" d="M176.85,77.26c-0.52,0.61-0.43,1.65,0.09,2.26c0.17,0.26,0.43,0.43,0.78,0.7c2.95,2,5.82,4.17,8.6,6.43
		c0.87,0.7,1.74,1.3,2.43,2.09c0.78,0.78,1.56,1.74,2.61,1.56c0.61-0.09,1.04-0.52,1.39-1.04c0.35-0.52,0.52-1.04,0.78-1.56
		c0.35-0.7,0.96-1.3,0.96-2.09c0-1.13-0.96-1.83-1.91-2.52c0.7,0.26,1.48-0.17,1.91-0.7c0.52-0.52,0.96-1.22,1.56-1.74
		c0.35-0.17,0.78-0.35,1.04-0.7c0.43-0.61,0.17-1.56-0.35-2.09c-0.52-0.61-1.22-0.96-1.91-1.3c-1.22-0.61-2.26-1.48-3.39-2.35
		c-1.83-1.48-3.65-2.95-5.39-4.43c-1.48-1.3-2.87-0.96-4,0.7c-0.26,0.43-0.52,0.78-0.87,1.22c-0.26,0.35-0.52,0.78-0.61,1.22
		c-0.09,0.35,0,0.87,0.35,1.22c-0.7-0.26-1.39,0.17-1.83,0.7c-0.52,0.43-0.78,1.13-1.3,1.56C177.46,76.65,177.11,76.91,176.85,77.26
		z M177.64,82.13c-1.22-0.96-2.52-2-2.61-3.48c-0.17-1.39,0.78-2.69,1.65-3.74c0.78-0.87,2-1.56,2.61-2.52
		c0.52-0.96,0.87-1.91,1.56-2.78c0.52-0.7,1.04-1.48,1.83-1.91c1.22-0.7,2.87-0.43,4,0.52c0.43,0.35,0.87,0.87,1.3,1.22
		c0.52,0.61,1.22,1.13,1.91,1.56c0.78,0.61,1.65,1.22,2.52,1.83c1.3,0.96,2.69,1.91,4,2.87c0.52,0.43,1.13,0.78,1.56,1.39
		c0.96,1.22,0.87,3.22-0.17,4.43c-0.52,0.61-1.22,1.04-1.83,1.56c-0.09,0.09-0.26,0.17-0.35,0.35c-0.09,0.26,0,0.52,0.09,0.78
		c0.35,0.87,0.35,1.83,0,2.69c-0.26,0.7-0.78,1.3-1.04,1.91c-0.26,0.52-0.43,1.13-0.78,1.65c-0.78,1.13-2.35,1.56-3.56,1.13
		c-0.61-0.26-1.04-0.61-1.56-0.96c-0.35-0.26-0.78-0.61-1.13-0.87C184.33,87.25,180.94,84.65,177.64,82.13z"/>
	<path class="st9" d="M160.17,110.46c-0.7-0.61-2.61-0.78-1.48,0.43c0.43,0.52,1.04,0.96,1.56,1.3c0.17,0.17,1.56,0.96,1.56,1.13
		c0.09-0.35-0.09-0.7-0.26-0.96C161.21,111.67,160.78,110.89,160.17,110.46z M154,112.02c-1.22-0.7-0.09-1.39,0.52-2.26
		c1.13-1.39,2.43-2.87,4.26-3.13c1.13-0.17,2.26,0.26,3.13,0.96c0.96,0.7,1.56,1.74,2.09,2.69c0.09,0.26,0.17,0.52,0.43,0.7
		c0.17,0.17,0.43,0.17,0.61,0.26c1.39,0.35,2.43,1.56,3.74,1.74c0.43,0,0.96,0.17,0.87,0.52c0,0.09-0.09,0.26-0.17,0.35
		c-0.87,0.7-1.74,1.48-2.52,2.26c-0.87-0.78-2-1.3-3.13-1.39c0.96,0.78,1.83,1.48,2.78,2.17c-0.87,0.96-1.48,2-1.74,3.22
		c-2-1.48-3.91-3.04-5.82-4.52C157.39,114.37,155.74,113.06,154,112.02z"/>
	<path d="M172.86,85.25c-1.3,1.83-2.61,3.65-3.91,5.48c-0.09,0.09-0.09,0.17-0.09,0.26c-0.09,0.26,0.17,0.35,0.43,0.52
		c1.74,0.87,3.3,2.17,4.87,3.39c1.74,1.3,3.39,2.69,5.13,4c0.09,0.17,0.26,0.26,0.43,0.26c0.17-0.09,0.26-0.17,0.35-0.35
		c1.04-1.3,2.09-2.69,3.13-4.08c0.61-0.7,1.22-1.48,2.17-1.83c0-0.17-0.09-0.26-0.09-0.35c-0.78-0.26-1.56-0.61-2.17-1.13
		c-0.43-0.35-1.04-0.78-1.56-0.7c-0.52,1.3-1.39,2.52-2.52,3.39c-0.52-0.17-1.04-0.52-0.96-1.04c0-0.26,0.17-0.35,0.35-0.52
		c0.43-0.43,0.87-0.78,1.39-1.13c0.17-0.09,0.35-0.35,0.17-0.43c-1.04-0.35-2.09-0.87-2.87-1.56c-0.26-0.17-0.61-0.43-0.78-0.17
		c-0.09,0-0.09,0.09-0.09,0.17c-0.26,0.78-0.7,1.39-1.3,1.83c-0.35-0.26-0.7-0.61-0.96-1.04c0.87-1.22,1.74-2.43,2.69-3.65
		c-0.96-0.35-1.56-1.04-2.09-1.83C173.81,83.6,173.55,84.21,172.86,85.25z M167.9,92.38c-0.43-0.43-0.78-1.04-0.7-1.56
		c0.09-0.43,0.35-0.87,0.61-1.22c1.48-2,2.87-4,4.35-6c0.17-0.35,0.43-0.61,0.78-0.87c0.52-0.43,1.3-0.43,1.91-0.09
		c0.61,0.35,0.96,0.96,1.3,1.48c0.78,1.13,2.78,1.65,1.91,3.48c-0.09,0.09-0.09,0.17-0.09,0.26c0,0.17,0.09,0.26,0.17,0.35
		c0.7,0.52,1.48,1.13,2.43,1.13c0.52-0.09,1.04-0.35,1.56-0.26c1.13,0.09,1.83,1.3,2.87,1.74c0.52,0.26,1.22,0.17,1.65,0.61
		c0.61,0.61,0.43,1.56-0.09,2.26c-0.52,0.61-1.22,1.04-1.91,1.56c-0.61,0.52-1.04,1.22-1.48,1.91c-0.52,0.7-1.04,1.48-1.48,2.17
		c-0.43,0.61-0.87,1.3-1.56,1.48c-0.52,0.17-1.13,0.09-1.56-0.26c-0.26-0.26-0.52-0.52-0.7-0.78c-0.7-0.7-1.56-1.13-2.35-1.74
		c-2.17-1.39-4-3.39-6.17-4.69C168.86,92.99,168.34,92.73,167.9,92.38z"/>
	<path d="M158.69,110.89c-1.13-1.22,0.78-1.04,1.48-0.43c0.61,0.43,1.04,1.22,1.39,1.91c0.17,0.26,0.35,0.61,0.26,0.96
		c0-0.17-1.39-0.96-1.56-1.13C159.73,111.85,159.13,111.41,158.69,110.89z"/>
	<polygon points="164.86,161.65 270.28,24.25 241.25,41.89 252.2,25.12 288.79,4.35 179.9,172.42 248.99,256.55 266.02,277.4 
		173.03,272.02 161.21,255.94 246.21,258.81 	"/>
	<path class="st8" d="M198.49,46.15l-6.26,4l2.95,0.87L198.49,46.15z M195.19,60.83c0.96,1.13,1.83,2,2.87,3.04
		c1.04,1.04,2.17,2.09,3.56,2.61c0.17,0,0.26,0.09,0.35,0c0.09,0,0.17,0,0.17-0.09c0.7-0.7,0.52-2.17,1.39-2.61
		c-1.48-1.13-2.95-2.17-4.43-3.3c-0.78-0.52-0.87-0.52-1.74-0.17C197.02,60.4,195.54,61.01,195.19,60.83z M187.46,64.57
		c1.22,1.91,2.78,3.48,4.52,4.95c2,1.83,4.17,3.39,6.6,4.52c1.65,0.7,3.56,1.22,5.39,0.87c1.65-0.35,3.13-1.39,4.43-2.52
		c0.52-0.35,0.96-0.78,1.22-1.3c0.43-0.7,0.43-1.65,0.26-2.52c-0.26-0.78-0.78-1.56-1.22-2.26c-0.43-0.61-0.87-1.22-1.56-1.65
		c-0.17-0.09-0.35-0.17-0.52-0.26c-0.61-0.17-1.13-0.09-1.65,0.17c-0.87,0.7-0.78,2.09-1.48,2.87c-0.61,0.61-1.39,0.7-2.17,0.52
		c-0.7-0.09-1.39-0.52-2-0.96c-2.95-1.91-5.65-4.43-6.87-7.65c0.96,0.09,2,0.09,2.95-0.09c0.61-0.09,1.22-0.35,1.74-0.7
		c0.87-0.52,0.78-0.87,1.74-0.17c1.3,0.96,2.61,2,3.91,2.95c0.78,0.61,1.56,1.13,2.26,1.83c0.43,0.35,0.87,0.78,1.39,1.04
		c0.09,0,0.09,0,0.17,0c0.52,0.26,1.13,0.26,1.56-0.09c0.26-0.09,0.43-0.35,0.61-0.52c0.78-1.13,1.65-2.26,2.43-3.3
		c0.43-0.7,0.96-1.3,1.56-1.83c0.43-0.35,0.87-0.7,1.3-1.13c0.61-0.7,0.61-1.65-0.09-2.35c-0.43-0.43-0.96-0.7-1.39-0.96
		c-0.87-0.43-1.74-0.87-2.61-1.3c-0.26-0.09-0.43-0.17-0.7-0.17s-0.43,0.09-0.7,0.17c-1.04,0.26-2-0.52-2.87-1.22
		c-0.09-0.09-0.26-0.26-0.26-0.35c0-0.26,0.09-0.43,0.17-0.61c0.26-0.61-0.09-1.3-0.52-1.83c-0.52-0.43-1.13-0.78-1.56-1.3
		c-0.52-0.61-0.96-1.48-1.74-1.65c-0.52-0.09-1.04,0.17-1.48,0.52c-0.43,0.35-0.7,0.87-0.96,1.3c-1.13,2-2.43,3.82-4,5.48
		c-1.65-1.56-4.35-1.65-6.26-0.52c-1.91,1.13-3.13,3.3-3.3,5.56S186.33,62.66,187.46,64.57z M89.95,158.26L30.5,80.39l76.3-0.17
		l22.07,27.2l46.84-55.45l90.9-50.93l0.26,0.43l-65.44,42.76c0.61,0.17,1.13,0.26,1.65,0.52c0.61,0.43,1.04,0.96,1.56,1.48
		c0.61,0.7,1.3,1.3,1.83,2c0.61,0.7,0.96,1.65,0.87,2.52c0.09,0.43,0.61,0.61,1.04,0.52c0.43,0,0.87-0.09,1.3-0.17
		c1.3,0,2.43,1.13,3.56,1.83c0.52,0.26,1.04,0.43,1.48,0.7c0.96,0.7,1.56,1.91,1.39,3.04c-0.17,1.83-1.91,2.52-2.95,3.74
		c-0.78,0.87-4.35,4.26-3.39,5.39c1.22,1.56,2.35,3.56,1.65,5.48c-0.09,0.43-0.35,0.78-0.61,1.13c-0.26,0.35-0.52,0.7-0.87,0.96
		c-1.91,1.83-4.52,2.87-7.13,2.87c-3.65,0.09-7.13-1.74-10.08-3.91c-0.17-0.17-0.35-0.35-0.61-0.43c-2.61-2.09-5.04-4.43-6.6-7.39
		c-1.48-2.78-2-6.17-0.87-9.13l-4.35,2.61l-53.19,69.79l-27.03-35.72l-45.89,0.96l49.54,63.96L12.6,279.4l-0.35-0.26L89.95,158.26z"
		/>
	<path class="st5" d="M175.03,78.65c0.09,1.48,1.39,2.52,2.61,3.48c3.3,2.52,6.69,5.13,9.99,7.65c0.35,0.26,0.78,0.61,1.13,0.87
		c0.52,0.35,0.96,0.7,1.56,0.96c1.22,0.43,2.78,0,3.56-1.13c0.35-0.52,0.52-1.13,0.78-1.65c0.26-0.61,0.78-1.22,1.04-1.91
		c0.35-0.87,0.35-1.83,0-2.69c-0.09-0.26-0.17-0.52-0.09-0.78c0.09-0.17,0.26-0.26,0.35-0.35c0.61-0.52,1.3-0.96,1.83-1.56
		c1.04-1.22,1.13-3.22,0.17-4.43c-0.43-0.61-1.04-0.96-1.56-1.39c-1.3-0.96-2.69-1.91-4-2.87c-0.87-0.61-1.74-1.22-2.52-1.83
		c-0.7-0.43-1.39-0.96-1.91-1.56c-0.43-0.35-0.87-0.87-1.3-1.22c-1.13-0.96-2.78-1.22-4-0.52c-0.78,0.43-1.3,1.22-1.83,1.91
		c-0.7,0.87-1.04,1.83-1.56,2.78c-0.61,0.96-1.83,1.65-2.61,2.52C175.81,75.96,174.86,77.26,175.03,78.65z M165.64,91.25
		c0.17,1.22,1.22,2.09,2.17,2.78c0,0,0,0,0.09,0c2.87,2.26,5.74,4.52,8.6,6.69c0.7,0.52,1.3,1.04,2.09,1.3
		c0.7,0.35,1.56,0.43,2.35,0.17c0.7-0.26,1.13-0.78,1.65-1.3c1.13-1.22,2.09-2.52,3.04-3.91c0.17-0.26,0.43-0.61,0.7-0.87
		c0.52-0.52,1.13-0.7,1.56-1.3c0.52-0.61,0.52-1.56,0.43-2.43c-0.09-0.87-0.26-1.74-0.96-2.26c-0.52-0.43-1.13-0.52-1.65-0.78
		c-1.3-0.52-2.35-1.83-3.74-1.74c-0.7,0-1.39,0.35-1.91-0.09c-0.52-0.43-0.35-1.13-0.52-1.74c-0.17-0.61-0.52-1.04-0.96-1.48
		c-0.52-0.43-0.7-0.78-1.13-1.3c-1.13-1.65-3.91-2.95-5.65-1.48c-0.61,0.52-0.96,1.22-1.3,1.91c-0.96,1.74-2.43,3.04-3.65,4.61
		C166.16,88.9,165.47,90.03,165.64,91.25z M159.39,97.94c-0.7,1.65,0.52,3.3,1.74,4.35c1.83,1.56,3.82,2.78,5.82,4.08
		c0.96,0.7,1.91,1.39,2.87,2.26c0.7,0.52,1.22,1.48,2,2c0.09,0.09,0.26,0.17,0.35,0.17c0.43,0.17,0.87,0.26,1.22,0.26
		c1.39,0,3.04-0.61,3.39-1.91c0.09-0.35,0.09-0.78,0.26-1.04c0.17-0.52,0.61-0.87,0.96-1.3c0.87-1.04,0.87-2.78,0-3.91
		c-0.43-0.52-1.04-0.96-1.65-1.39c-2.17-1.48-4.35-3.04-6.34-4.69c-0.87-0.7-1.65-1.56-2.52-2.26c-1.13-0.96-2.35-1.56-4.08-1.04
		c-1.56,0.43-1.56,1.65-2.52,2.69C160.34,96.73,159.73,97.16,159.39,97.94z M151.3,108.63c-1.39,1.22-1.22,3.22-0.09,4.69
		c0.61,0.78,1.48,1.39,2.26,2c3.13,2.17,6.08,4.43,9.04,6.78c0.17,0.09,0.35,0.26,0.52,0.35c0.17,0.26,0.43,0.43,0.7,0.52
		s0.61,0,0.87,0c0.78-0.09,1.56-0.17,2.17-0.61c0.78-0.61,1.04-1.65,1.48-2.52c0.43-0.96,1.04-1.83,1.83-2.52
		c0.78-0.7,1.83-1.3,2.35-2.26c0.78-1.3,0.35-3.22-0.87-4.17c-0.43-0.26-0.96-0.43-1.39-0.61c-1.04-0.43-2.87-0.78-3.56-1.74
		c-1.39-2.09-3.3-4-5.82-4.69c-2.35-0.7-5.56,0-7.13,2.09c-0.26,0.35-0.43,0.78-0.7,1.13C152.52,107.68,151.91,108.11,151.3,108.63z
		 M141.74,121.49c-1.04,1.39-0.7,3.13,0.43,4.52c0.87,1.04,2,1.74,3.04,2.52c0.43,0.26,0.78,0.52,1.13,0.87c1.39,0.96,2.69,2,4,3.04
		c0.87,0.78,1.65,1.48,2.69,2c1.04,0.43,2.26,0.7,3.3,0.26c1.04-0.43,1.83-1.48,2.52-2.43c0.52-0.7,1.04-1.39,1.56-2.09
		c0.35-0.52,0.7-1.04,1.13-1.39c0.35-0.35,0.7-0.61,1.04-0.96c0.7-0.7,1.04-1.74,0.96-2.69c-0.09-1.04-0.61-2-1.48-2.52
		c-0.7-0.52-1.48-0.7-2.26-1.13c-0.87-0.52-1.65-1.39-2.69-1.3c-0.7,0-1.39,0.43-1.91,0s-0.35-1.22-0.52-1.91
		c-0.17-0.87-1.13-1.39-1.83-2c-0.52-0.61-0.87-1.3-1.39-1.91c-1.22-1.04-3.13-0.87-4.43,0.09c-0.52,0.43-0.96,1.04-1.39,1.65
		C144.35,117.84,143.05,119.67,141.74,121.49z M132.62,137.05c0.43,0.7,1.13,1.22,1.74,1.74c1.48,1.04,2.95,2.17,4.43,3.3
		c0.96,0.7,1.83,1.39,2.69,2.17c1.04,0.87,1.91,1.91,3.13,2.52c1.22,0.61,2.69,0.7,3.74-0.17c0.43-0.35,0.78-0.87,1.04-1.39
		c0.43-0.7,0.78-1.3,1.13-1.91c0.26-0.61,0.61-1.22,0.7-1.83c0.35-1.74-0.78-2.43-1.74-3.65c-0.7-0.96-0.52-2.87-0.78-4
		c-0.17-0.7-0.35-1.39-0.7-2c-0.52-0.78-1.22-1.48-2-2c-1.56-1.22-3.48-2.09-5.48-2c-1.56,0.09-3.04,0.7-4.26,1.65
		c-1.22,0.96-2.26,2.17-3.13,3.39c-0.26,0.43-0.61,0.78-0.7,1.22C132.01,135.05,132.1,136.18,132.62,137.05z M12.6,279.4
		l91.16-122.45L54.23,92.99l45.89-0.96l27.03,35.72l53.19-69.79l4.35-2.61c-1.13,2.95-0.61,6.34,0.87,9.13c1.56,2.95,4,5.3,6.6,7.39
		c0.26,0.09,0.43,0.26,0.61,0.43c2.95,2.17,6.43,4,10.08,3.91c2.61,0,5.21-1.04,7.13-2.87c0.35-0.26,0.61-0.61,0.87-0.96l1.91,1.39
		l-62.66,83.6l62.66,83.17l-45.97,1.04l-39.8-53.53l-25.72,34.85l-7.39,4.69l49.02-76.74l-60.83,84.3l-13.9,8.86l45.71-68.4
		l-58.4,76.56l-15.12,9.65l88.3-121.41L25.12,271.41L12.6,279.4z"/>
	<path class="st5" d="M201.45,44.24l65.44-42.76l-54.14,72.31l-1.91-1.39c0.26-0.35,0.52-0.7,0.61-1.13
		c0.7-1.91-0.43-3.91-1.65-5.48c-0.96-1.13,2.61-4.52,3.39-5.39c1.04-1.22,2.78-1.91,2.95-3.74c0.17-1.13-0.43-2.35-1.39-3.04
		c-0.43-0.26-0.96-0.43-1.48-0.7c-1.13-0.7-2.26-1.83-3.56-1.83c-0.43,0.09-0.87,0.17-1.3,0.17c-0.43,0.09-0.96-0.09-1.04-0.52
		c0.09-0.87-0.26-1.83-0.87-2.52c-0.52-0.7-1.22-1.3-1.83-2c-0.52-0.52-0.96-1.04-1.56-1.48C202.58,44.5,202.06,44.41,201.45,44.24z
		"/>
	<path d="M154.52,109.76c-0.61,0.87-1.74,1.56-0.52,2.26c1.74,1.04,3.39,2.35,5.04,3.56c1.91,1.48,3.82,3.04,5.82,4.52
		c0.26-1.22,0.87-2.26,1.74-3.22c-0.96-0.7-1.83-1.39-2.78-2.17c1.13,0.09,2.26,0.61,3.13,1.39c0.78-0.78,1.65-1.56,2.52-2.26
		c0.09-0.09,0.17-0.26,0.17-0.35c0.09-0.35-0.43-0.52-0.87-0.52c-1.3-0.17-2.35-1.39-3.74-1.74c-0.17-0.09-0.43-0.09-0.61-0.26
		c-0.26-0.17-0.35-0.43-0.43-0.7c-0.52-0.96-1.13-2-2.09-2.69c-0.87-0.7-2-1.13-3.13-0.96
		C156.95,106.89,155.65,108.37,154.52,109.76z M151.83,110.72c0.09-0.52,0.52-0.87,0.87-1.22c1.83-1.91,2.69-4.26,5.74-4.43
		c2.87-0.26,5.39,1.39,6.6,3.91c0.09,0.26,0.26,0.52,0.43,0.7c0.26,0.35,0.52,0.52,0.87,0.7c0.78,0.43,1.56,0.87,2.43,1.04
		c0.52,0,0.96,0,1.3,0.17c0.43,0.26,0.78,0.7,0.96,1.13c0.17,0.35,0.26,0.7,0.26,0.96c-0.09,0.61-0.7,1.04-1.13,1.39
		c-1.48,1.13-2.61,2.69-3.39,4.35c-0.35,0.78-0.61,1.56-1.39,1.91c-0.52,0.26-1.22,0.17-1.74-0.09c-0.52-0.35-0.96-0.78-1.39-1.13
		c-1.13-0.96-2.26-1.83-3.48-2.69c-1.83-1.39-3.65-2.69-5.48-4c-0.43-0.35-0.87-0.7-1.22-1.13
		C151.74,111.85,151.56,111.24,151.83,110.72z"/>
	<path class="st8" d="M167.82,89.6c-0.26,0.35-0.52,0.78-0.61,1.22c-0.09,0.52,0.26,1.13,0.7,1.56c0.43,0.35,0.96,0.61,1.48,0.96
		c2.17,1.3,4,3.3,6.17,4.69c0.78,0.61,1.65,1.04,2.35,1.74c0.17,0.26,0.43,0.52,0.7,0.78c0.43,0.35,1.04,0.43,1.56,0.26
		c0.7-0.17,1.13-0.87,1.56-1.48c0.43-0.7,0.96-1.48,1.48-2.17c0.43-0.7,0.87-1.39,1.48-1.91c0.7-0.52,1.39-0.96,1.91-1.56
		c0.52-0.7,0.7-1.65,0.09-2.26c-0.43-0.43-1.13-0.35-1.65-0.61c-1.04-0.43-1.74-1.65-2.87-1.74c-0.52-0.09-1.04,0.17-1.56,0.26
		c-0.96,0-1.74-0.61-2.43-1.13c-0.09-0.09-0.17-0.17-0.17-0.35c0-0.09,0-0.17,0.09-0.26c0.87-1.83-1.13-2.35-1.91-3.48
		c-0.35-0.52-0.7-1.13-1.3-1.48c-0.61-0.35-1.39-0.35-1.91,0.09c-0.35,0.26-0.61,0.52-0.78,0.87
		C170.68,85.6,169.29,87.6,167.82,89.6z M165.64,91.25c-0.17-1.22,0.52-2.35,1.22-3.22c1.22-1.56,2.69-2.87,3.65-4.61
		c0.35-0.7,0.7-1.39,1.3-1.91c1.74-1.48,4.52-0.17,5.65,1.48c0.43,0.52,0.61,0.87,1.13,1.3c0.43,0.43,0.78,0.87,0.96,1.48
		c0.17,0.61,0,1.3,0.52,1.74c0.52,0.43,1.22,0.09,1.91,0.09c1.39-0.09,2.43,1.22,3.74,1.74c0.52,0.26,1.13,0.35,1.65,0.78
		c0.7,0.52,0.87,1.39,0.96,2.26c0.09,0.87,0.09,1.83-0.43,2.43c-0.43,0.61-1.04,0.78-1.56,1.3c-0.26,0.26-0.52,0.61-0.7,0.87
		c-0.96,1.39-1.91,2.69-3.04,3.91c-0.52,0.52-0.96,1.04-1.65,1.3c-0.78,0.26-1.65,0.17-2.35-0.17c-0.78-0.26-1.39-0.78-2.09-1.3
		c-2.87-2.17-5.74-4.43-8.6-6.69c-0.09,0-0.09,0-0.09,0C166.86,93.34,165.82,92.47,165.64,91.25z"/>
	<path class="st8" d="M160.86,99.86c0.26,0.61,0.78,1.04,1.3,1.39c2.52,1.91,5.04,3.74,7.65,5.65c0.61,0.52,1.3,0.96,1.91,1.56
		c0.26,0.35,0.52,0.61,0.96,0.87c0.87,0.52,2.17,0.09,2.61-0.87c0.09-0.17,0.17-0.43,0.26-0.7c0.26-0.52,0.43-1.22,0.78-1.65
		c0.26-0.26,0.52-0.52,0.7-0.87c0.26-0.43,0.17-0.96-0.09-1.39c-0.52-0.7-1.56-1.13-2.26-1.56c-0.87-0.61-1.83-1.22-2.69-1.91
		c-1.74-1.3-3.48-2.78-5.04-4.26c-0.43-0.43-0.96-0.87-1.48-1.13c-0.52-0.26-1.22-0.35-1.83-0.09c-0.87,0.43-1.04,1.65-1.65,2.43
		C161.47,98.12,160.25,98.64,160.86,99.86z M161.12,102.29c-1.22-1.04-2.43-2.69-1.74-4.35c0.35-0.78,0.96-1.22,1.48-1.74
		c0.96-1.04,0.96-2.26,2.52-2.69c1.74-0.52,2.95,0.09,4.08,1.04c0.87,0.7,1.65,1.56,2.52,2.26c2,1.65,4.17,3.22,6.34,4.69
		c0.61,0.43,1.22,0.87,1.65,1.39c0.87,1.13,0.87,2.87,0,3.91c-0.35,0.43-0.78,0.78-0.96,1.3c-0.17,0.26-0.17,0.7-0.26,1.04
		c-0.35,1.3-2,1.91-3.39,1.91c-0.35,0-0.78-0.09-1.22-0.26c-0.09,0-0.26-0.09-0.35-0.17c-0.78-0.52-1.3-1.48-2-2
		c-0.96-0.87-1.91-1.56-2.87-2.26C164.95,105.07,162.95,103.85,161.12,102.29z"/>
	<path class="st8" d="M152.69,109.5c-0.35,0.35-0.78,0.7-0.87,1.22c-0.26,0.52-0.09,1.13,0.26,1.56c0.35,0.43,0.78,0.78,1.22,1.13
		c1.83,1.3,3.65,2.61,5.48,4c1.22,0.87,2.35,1.74,3.48,2.69c0.43,0.35,0.87,0.78,1.39,1.13c0.52,0.26,1.22,0.35,1.74,0.09
		c0.78-0.35,1.04-1.13,1.39-1.91c0.78-1.65,1.91-3.22,3.39-4.35c0.43-0.35,1.04-0.78,1.13-1.39c0-0.26-0.09-0.61-0.26-0.96
		c-0.17-0.43-0.52-0.87-0.96-1.13c-0.35-0.17-0.78-0.17-1.3-0.17c-0.87-0.17-1.65-0.61-2.43-1.04c-0.35-0.17-0.61-0.35-0.87-0.7
		c-0.17-0.17-0.35-0.43-0.43-0.7c-1.22-2.52-3.74-4.17-6.6-3.91C155.39,105.24,154.52,107.59,152.69,109.5z M151.22,113.33
		c-1.13-1.48-1.3-3.48,0.09-4.69c0.61-0.52,1.22-0.96,1.65-1.56c0.26-0.35,0.43-0.78,0.7-1.13c1.56-2.09,4.78-2.78,7.13-2.09
		c2.52,0.7,4.43,2.61,5.82,4.69c0.7,0.96,2.52,1.3,3.56,1.74c0.43,0.17,0.96,0.35,1.39,0.61c1.22,0.96,1.65,2.87,0.87,4.17
		c-0.52,0.96-1.56,1.56-2.35,2.26c-0.78,0.7-1.39,1.56-1.83,2.52c-0.43,0.87-0.7,1.91-1.48,2.52c-0.61,0.43-1.39,0.52-2.17,0.61
		c-0.26,0-0.61,0.09-0.87,0s-0.52-0.26-0.7-0.52c-0.17-0.09-0.35-0.26-0.52-0.35c-2.95-2.35-5.91-4.61-9.04-6.78
		C152.69,114.72,151.83,114.11,151.22,113.33z"/>
	<path class="st8" d="M143.4,121.84c-0.52,0.7-0.96,1.39-0.87,2.17c0.17,0.7,0.78,1.22,1.3,1.65c3.13,2.35,6.26,4.69,9.39,7.04
		c0.43,0.43,1.04,0.78,1.65,0.78c0.87,0,1.56-0.7,2.09-1.39c0.96-1.22,1.83-2.35,2.78-3.56c0.26-0.35,0.52-0.7,0.87-0.96
		c0.26-0.26,0.52-0.43,0.78-0.7c0.61-0.61,0.87-1.56,0.43-2.35c-0.52-0.96-1.65-1.22-2.61-1.74c-0.61-0.35-1.04-0.78-1.65-1.04
		c-0.96-0.35-0.96,0.43-1.65,0.43c-0.52,0-1.91-1.04-2.35-1.39c-0.61-0.52,0-1.04-0.26-1.91c-0.35-0.96-1.56-1.39-2.17-2.26
		c-0.17-0.35-0.26-0.61-0.52-0.96c-0.43-0.61-1.48-0.61-2.17-0.26c-0.7,0.43-1.22,1.04-1.65,1.74
		C145.65,118.71,144.52,120.28,143.4,121.84z M142.18,126.01c-1.13-1.39-1.48-3.13-0.43-4.52c1.3-1.83,2.61-3.65,3.91-5.39
		c0.43-0.61,0.87-1.22,1.39-1.65c1.3-0.96,3.22-1.13,4.43-0.09c0.52,0.61,0.87,1.3,1.39,1.91c0.7,0.61,1.65,1.13,1.83,2
		c0.17,0.7,0,1.48,0.52,1.91s1.22,0,1.91,0c1.04-0.09,1.83,0.78,2.69,1.3c0.78,0.43,1.56,0.61,2.26,1.13
		c0.87,0.52,1.39,1.48,1.48,2.52c0.09,0.96-0.26,2-0.96,2.69c-0.35,0.35-0.7,0.61-1.04,0.96c-0.43,0.35-0.78,0.87-1.13,1.39
		c-0.52,0.7-1.04,1.39-1.56,2.09c-0.7,0.96-1.48,2-2.52,2.43c-1.04,0.43-2.26,0.17-3.3-0.26c-1.04-0.52-1.83-1.22-2.69-2
		c-1.3-1.04-2.61-2.09-4-3.04c-0.35-0.35-0.7-0.61-1.13-0.87C144.18,127.75,143.05,127.06,142.18,126.01z"/>
	<path d="M143.74,137.66c-1.56-0.7-3.39-2-4.26-3.39c1.04-0.26,2.35-0.26,3.04,0.61C143.22,135.57,143.57,136.62,143.74,137.66z"/>
	<path class="st10" d="M139.48,134.27c0.87,1.39,2.69,2.69,4.26,3.39c-0.17-1.04-0.52-2.09-1.22-2.78
		C141.83,134.01,140.53,134.01,139.48,134.27z M139.05,138.53c-1.13-0.78-2.26-1.56-3.22-2.35c-1.22-0.96,0-1.83,0.78-2.69
		c0.78-0.96,1.65-2,2.87-2.43c1.04-0.35,2.17-0.26,3.22,0.17c2.09,0.87,3.56,3.13,3.48,5.48c-0.09,0.61-0.17,1.22-0.35,1.83
		c-0.09,0.17-0.17,0.35-0.09,0.52c0.09,0.17,0.17,0.26,0.26,0.35c0.78,0.52,1.48,1.13,2.26,1.65c-0.78,0.87-1.39,1.91-1.83,3.04
		c-0.35-0.26-0.7-0.52-1.04-0.78C143.13,141.92,141.14,140.09,139.05,138.53z"/>
	<path d="M135.4,137.66c-0.52-0.43-1.04-0.87-1.39-1.39c-0.35-0.61-0.52-1.3-0.26-1.91c0.09-0.26,0.26-0.43,0.43-0.61
		c0.52-0.61,1.04-1.22,1.56-1.83c0.61-0.61,1.13-1.3,1.83-1.74c2.17-1.56,5.39-1.13,7.39,0.61c1.39,1.3,2.26,3.04,2.52,4.78
		c0.09,0.78-0.09,1.74,0.09,2.52c0.26,0.78,1.13,0.96,1.65,1.56c0.52,0.52,0.7,1.3,0.43,1.91c-0.17,0.52-0.78,0.87-1.04,1.39
		c-0.43,0.7-0.35,1.74-0.96,2.35c-0.35,0.35-0.78,0.43-1.3,0.43c-0.17,0-0.43,0-0.7-0.09c-0.26-0.09-0.52-0.35-0.78-0.61
		c-0.52-0.61-1.13-1.04-1.74-1.56C140.53,141.57,138.01,139.57,135.4,137.66z M139.48,131.05c-1.22,0.43-2.09,1.48-2.87,2.43
		c-0.78,0.87-2,1.74-0.78,2.69c0.96,0.78,2.09,1.56,3.22,2.35c2.09,1.56,4.08,3.39,6.34,4.78c0.35,0.26,0.7,0.52,1.04,0.78
		c0.43-1.13,1.04-2.17,1.83-3.04c-0.78-0.52-1.48-1.13-2.26-1.65c-0.09-0.09-0.17-0.17-0.26-0.35c-0.09-0.17,0-0.35,0.09-0.52
		c0.17-0.61,0.26-1.22,0.35-1.83c0.09-2.35-1.39-4.61-3.48-5.48C141.66,130.79,140.53,130.71,139.48,131.05z"/>
	<path class="st8" d="M134.18,133.75c-0.17,0.17-0.35,0.35-0.43,0.61c-0.26,0.61-0.09,1.3,0.26,1.91c0.35,0.52,0.87,0.96,1.39,1.39
		c2.61,1.91,5.13,3.91,7.73,5.82c0.61,0.52,1.22,0.96,1.74,1.56c0.26,0.26,0.52,0.52,0.78,0.61c0.26,0.09,0.52,0.09,0.7,0.09
		c0.52,0,0.96-0.09,1.3-0.43c0.61-0.61,0.52-1.65,0.96-2.35c0.26-0.52,0.87-0.87,1.04-1.39c0.26-0.61,0.09-1.39-0.43-1.91
		c-0.52-0.61-1.39-0.78-1.65-1.56c-0.17-0.78,0-1.74-0.09-2.52c-0.26-1.74-1.13-3.48-2.52-4.78c-2-1.74-5.21-2.17-7.39-0.61
		c-0.7,0.43-1.22,1.13-1.83,1.74C135.23,132.53,134.7,133.14,134.18,133.75z M132.62,137.05c-0.52-0.87-0.61-2-0.17-2.95
		c0.09-0.43,0.43-0.78,0.7-1.22c0.87-1.22,1.91-2.43,3.13-3.39c1.22-0.96,2.69-1.56,4.26-1.65c2-0.09,3.91,0.78,5.48,2
		c0.78,0.52,1.48,1.22,2,2c0.35,0.61,0.52,1.3,0.7,2c0.26,1.13,0.09,3.04,0.78,4c0.96,1.22,2.09,1.91,1.74,3.65
		c-0.09,0.61-0.43,1.22-0.7,1.83c-0.35,0.61-0.7,1.22-1.13,1.91c-0.26,0.52-0.61,1.04-1.04,1.39c-1.04,0.87-2.52,0.78-3.74,0.17
		c-1.22-0.61-2.09-1.65-3.13-2.52c-0.87-0.78-1.74-1.48-2.69-2.17c-1.48-1.13-2.95-2.26-4.43-3.3
		C133.75,138.27,133.05,137.75,132.62,137.05z"/>
	<polygon class="st1" points="110.98,233.69 35.37,283.57 50.58,261.15 113.5,229.95 	"/>
	<polygon points="18.68,300 38.76,267.06 50.58,261.15 35.37,283.57 110.98,233.69 113.5,229.95 116.37,228.48 127.93,211.1 
		140.27,227.69 131.23,243.68 	"/>
	<polygon class="st8" points="38.76,267.06 11.21,280.79 12.25,279.14 12.6,279.4 25.12,271.41 128.62,140.44 40.32,261.85 
		55.45,252.2 113.85,175.64 68.13,244.03 82.04,235.17 142.87,150.87 93.86,227.61 101.25,222.91 126.97,188.06 166.77,241.6 
		212.75,240.56 150.09,157.39 212.75,73.78 266.89,1.48 266.63,1.04 268.54,0 252.2,25.12 241.25,41.89 163.9,160.43 164.86,161.65 
		246.21,258.81 161.21,255.94 161.12,255.94 140.27,227.69 127.93,211.1 116.37,228.48 113.5,229.95 50.58,261.15 	"/>
</g>
</svg>
